/* XPM */
static char *a3864417532a4a7f966b37adc36b9c1b7w0ZqvvyvarbyITY[] = {
/* columns rows colors chars-per-pixel */
"32 32 105 2 ",
"   c #D9DE9E",
".  c #ECF8B4",
"X  c #EBF8B6",
"o  c #C3BD89",
"O  c #D9DC9E",
"+  c #DEE9A9",
"@  c #F9F9C5",
"#  c #E0EDAD",
"$  c #D4D394",
"%  c #D5D599",
"&  c #E8F7B5",
"*  c #D3CD95",
"=  c #CFC993",
"-  c #C6C08C",
";  c #D7D799",
":  c #646464",
">  c gray25",
",  c #464646",
"<  c gray28",
"1  c gray24",
"2  c gray23",
"3  c gray22",
"4  c #3C3C3C",
"5  c #3F3F3F",
"6  c #434343",
"7  c gray26",
"8  c #DEEDAB",
"9  c gray19",
"0  c black",
"q  c gray7",
"w  c #151515",
"e  c gray1",
"r  c #010101",
"t  c gray8",
"y  c gray6",
"u  c #DEE6A6",
"i  c gray5",
"p  c #0C0C0C",
"a  c #0B0B0B",
"s  c gray18",
"d  c #020202",
"f  c #131313",
"g  c #DFE6A6",
"h  c #F2F8BC",
"j  c #090909",
"k  c gray3",
"l  c #0E0E0E",
"z  c gray11",
"x  c #3E3E3E",
"c  c gray14",
"v  c #D9E2A2",
"b  c gray20",
"n  c #070707",
"m  c #171617",
"M  c #F4F9BD",
"N  c #2F2F2E",
"B  c #AB76B8",
"V  c #9C54AE",
"C  c #8E11AB",
"Z  c #8C06AC",
"A  c #A04EB4",
"S  c #A15BB2",
"D  c #251B26",
"F  c #1B161C",
"G  c #9456A4",
"H  c #A455B6",
"J  c #8C0AAA",
"K  c #8B09A9",
"L  c #9D50B0",
"P  c #9D60AD",
"I  c #D4D094",
"U  c #E193F2",
"Y  c #E177FA",
"T  c #CC14F6",
"R  c #CA02F6",
"E  c #DE68FB",
"W  c #DD7AF7",
"Q  c #2B1D2E",
"!  c #1D161F",
"~  c #CC72E3",
"^  c #E272FB",
"/  c #C909F4",
"(  c #C807F3",
")  c #DD83F3",
"_  c #6A566F",
"`  c #492E50",
"'  c #360A41",
"]  c #33043F",
"[  c #391C41",
"{  c #38203F",
"}  c #19161A",
"|  c #171517",
" . c #351F3A",
".. c #3A1E40",
"X. c #33063E",
"o. c #33063F",
"O. c #492C50",
"+. c #523B58",
"@. c #FAFAD0",
"#. c #232323",
"$. c #111111",
"%. c #101010",
"&. c #040404",
"*. c gray2",
"=. c gray16",
/* pixels */
"    . . X X o o o o O O + + o o o o     . . @ @ @ @ # # o o o o ",
"    . . X X o o o o O O + + o o o o     . . @ @ @ @ # # o o o o ",
"$ $ X X o o o o % % & & o o % % o o * * * * X X . . o o O O O O ",
"$ $ X X o o o o % % & & o o % % o o * * * * X X . . o o O O O O ",
"X X o o     O O O O @ @ o o = = O O O O % % @ @ . . X X - - ; ; ",
"X X o o     O O O O @ @ o o = = O O O O % % @ @ . . X X - - ; ; ",
"X X X X o o     + + @ @ O O O O * * O O @ @ @ @ o o X X X X @ @ ",
"X X X X o o     + + @ @ O O O O * * O O @ @ @ @ o o X X X X @ @ ",
"- - o o @ @ @ @ : > , < 1 2 3 3 4 1 5 5 6 7 4 < O O O O X X 8 8 ",
"- - o o @ @ @ @ 9 0 q w e 0 0 0 0 0 0 r t t r y O O O O X X 8 8 ",
"o o     u u o o 9 0 q w i p r 0 0 0 a p w t r y * * O O % % & & ",
"o o     u u o o s 0 q w w w d 0 0 r f w w t r y * * O O % % & & ",
"g g % % h h o o 3 i j k f w l i i i t w j k i z $ $ = = h h @ @ ",
"g g % % h h o o x w e 0 q w w w w w w t r r t c $ $ = = h h @ @ ",
"v v g g u u @ @ b n r 0 q w w w w w w t r 0 n m u u @ @ M M & & ",
"v v g g u u @ @ N 0 0 0 q w w w w w w t r 0 0 y u u @ @ M M & & ",
"X X o o o o o o B V C Z A S D w w F G H J K L P o o I I . . X X ",
"X X o o o o o o U Y T R E W Q w w ! ~ ^ / ( ^ ) o o I I . . X X ",
"X X O O % % O O _ ` ' ] [ { } w w |  ...X.o.O.+.@.@.X X o o o o ",
"X X O O % % O O > w e 0 0 0 f w w t d 0 0 r t #.@.@.X X o o o o ",
"@ @ M M $ $ O O x w $.%.%.%.w w w w $.%.%.$.w c X X o o o o O O ",
"@ @ M M $ $ O O x w w w w w w w w w w w w w w c X X o o o o O O ",
"@ @ X X @ @ @ @ 9 &.q w w w *.&.&.&.t w w w &.f o o % % = = O O ",
"@ @ X X @ @ @ @ =.0 q w w w d 0 0 r f w w t r i o o % % = = O O ",
"X X o o - - - - @ @     o o * * o o o o X X X X o o ; ; ; ; @ @ ",
"X X o o - - - - @ @     o o * * o o o o X X X X o o ; ; ; ; @ @ ",
"o o o o * * % % & & X X @.@.& & u u ; ;     X X     $ $ O O @ @ ",
"o o o o * * % % & & X X @.@.& & u u ; ;     X X     $ $ O O @ @ ",
"& & I I o o O O u u O O     M M h h M M O O X X # # @ @ @ @ . . ",
"& & I I o o O O u u O O     M M h h M M O O X X # # @ @ @ @ . . ",
"% % @ @ g g % % O O @ @ & & o o O O O O @.@.& & o o o o X X O O ",
"% % @ @ g g % % O O @ @ & & o o O O O O @.@.& & o o o o X X O O "
};
