/* XPM */
static char *d8a94883e6404ff4a1604eaeeba518b3ZxntPpPppWNZeVxt[] = {
/* columns rows colors chars-per-pixel */
"32 32 36 1 ",
"  c #07070B",
". c #090909",
"X c #09090B",
"o c #09090D",
"O c #0A0A0F",
"+ c #070711",
"@ c #090912",
"# c #090913",
"$ c #0E0E12",
"% c #0E0E16",
"& c #0F0F18",
"* c #0F0F1D",
"= c #110E1D",
"- c #101010",
"; c #111111",
": c #111117",
"> c #101018",
", c #13131C",
"< c #10101E",
"1 c #0F0F21",
"2 c #111121",
"3 c #101023",
"4 c #171124",
"5 c #1A1427",
"6 c #1B1528",
"7 c #1E182B",
"8 c #211B2E",
"9 c #221C2F",
"0 c #231D30",
"q c #241E31",
"w c #30244A",
"e c #362A50",
"r c #3A2E54",
"t c #3C3056",
"y c #40345A",
"u c #463A60",
/* pixels */
">>>>>>%:%%:>%>%%:>oo&%<<22:%oo>>",
">>>>>>%%:::%&%:%>>@o%:><22:%o@>>",
"%%::oooooOO;**&>o ee>>>><<oott>>",
"%%::o@oo@o;;**&> oee>>>><>o tt>>",
">%o@rrtttt%%$%oott77<>%@ ott77>>",
">:@orrtttr%%%%@ott77,<%%oott77>>",
"$$@o7798%%;;;Ouu7777:%:> o&%>><>",
"$$oo7788%%;;;;uu7777::%:o+%:>><>",
"$$ o77%>::;%@%:>;@$%><@@77*&>>><",
"$$XX77>>;%:;%%&&;;@$<>@@77&*><>>",
">>%>::##XXooXoo@::%%o@>>&>>>%%::",
">>>>%>##Xooooooo%:$%@o>>>>>>$$:%",
">>;;<>%>rttttttt%$oott%%o oX o%%",
">>;;<<:%tttrtttt;%oott%% oXo@+%:",
"<<:>X.$%>>767744,,oX77o wwtt772*",
"<<:%X.$$>>567744,>XX77 owwtt7712",
"%:oott77:><>qq77>>>:*>o 6677%%><",
"%%@ott77%>>>qq77>>%>2* o6677%>,,",
"%$>>>><<>>>::&99&>%$;%++77&%>>::",
"%%>>>><<>>%:>>99&>@%%&+#77%%>>>:",
";;::><:&>:&>*&**>>oo&%33>>@@>>>>",
"O;::>>:%&%>>&&**>>oo%%12>>@@>>>>",
"12ooo$>:%%%:>>%:o@tt&%>>o yy77>>",
"<<@o@o>%::%%::%%oott%&>> oyy77>>",
">>ttrr88>%;;==%$XXrr77>>><:;%$%:",
">>ttrr88%%o;==%:.Xrr77>>>>$:%:%%",
"11>>7777*2XX67>>Xo9q7777><>>>:><",
"11>>77772*Xo77>>ooqq7777>>><<:,<",
">>%:>>77>>>>%@%:o@55777777>>%&%@",
">>>:>>77:,>>@$>>@o55777777>>:%#&",
">>%$>>**><<>>>>>>>:*:;<>>>>>>%2<",
">>:%>>**>>>>>>>><>><;>><>>>>%&<<"
};
