/* XPM */
static char *_94370fd629041bccb9a321e733b6d6ageLaqRBAFLAqCIn6[] = {
/* columns rows colors chars-per-pixel */
"32 32 25 1 ",
"  c #C3BD89",
". c #C6C08C",
"X c #CFC993",
"o c #D3CB93",
"O c #D3CD95",
"+ c #D4D094",
"@ c #D4D394",
"# c #D5D599",
"$ c #D7D799",
"% c #D9DC9E",
"& c #D9DE9E",
"* c #D9E2A2",
"= c #DEE6A6",
"- c #DFE6A6",
"; c #DEE9A9",
": c #DEEDAB",
"> c #E0EDAD",
", c #E8F7B5",
"< c #EBF8B6",
"1 c #ECF8B4",
"2 c #F2F8BC",
"3 c #F4F9BD",
"4 c #F9F9C5",
"5 c #F9FAC6",
"6 c #FAFAD0",
/* pixels */
"&&11<<    %%;;    &&114444>>    ",
"&&11<<    %%;;    &&114444>>    ",
"@@<<    ##,,  ##  OOOO1,11  %%&%",
"@@<<    ##,,  ##  OOOO1,11  %%%%",
"<<  &&&&%%44  XX%%%%##44<<<< .$$",
"<<  &&%%%%44  XX%%%%##441<<<..$$",
"<<<<  &&--44%%%%OO%%4444  <<<<54",
"<<,,  &&->44%%%%OO%%4444  <<<<44",
" .  44444444<,%%6644    %%%%<<>>",
" .  434444441<%%6644    %%%%<<;;",
"  &&%>      <<44,,    %%OO%%##1<",
"  &&>>      <<44,,    %%OO%%##,<",
">>$$33  $$&&&&<<,<<<&%OO@@XX2255",
"&>+O33  %%&%&&<<<<<<&&OO@@XX2255",
"&*>>>&44666644$@  %%3311==4432,,",
"&*>&&>44666644O@  %%321<==4532,,",
"<<      %%33        oo>>  @O1111",
"<<      %%33        OO>>  OO11<1",
"<<%%$#%%oo6611&>    >>%%66,<    ",
"<<%%##%%Oo66,1>>    >>%&66<<    ",
"4433@@%%66<<<<,,44%%%%66<<    &&",
"4433@@%%66<<<<,,44%%%%66<,    &&",
"44<<4444<<    %%--44,<<<  ##XX%%",
"44<<4444<<    %%--441<<<  ##Xo%%",
"<<   ...44%&  OO    <<<<  $$$$44",
"<<  ....44%&  oo    <<<<  $$$$44",
"    OO$$,,<<66,,>*$$&&<<%&O@%&44",
"    OO##,,<166,,>>$$&&<<%*@@%&44",
"<1Oo  %%&>$%%%331222%%<<>>4444<<",
",1Oo  %%>>$%%%332232%%<<>>444411",
"@#44>>##%%441<  %%$%66,,    <<%%",
"##44&>##%%441<  %%%%66,,    <<%%"
};
