/* XPM */
static char *_e67da959e1e4817fe1692de5bc16195NM32EPbDTsypfupE[] = {
/* columns rows colors chars-per-pixel */
"32 32 111 2 ",
"   c #D9DE9E",
".  c #ECF8B4",
"X  c #EBF8B6",
"o  c #C3BD89",
"O  c #D9DC9E",
"+  c #DEE9A9",
"@  c #F9F9C5",
"#  c #E0EDAD",
"$  c #D4D394",
"%  c #D5D599",
"&  c #E8F7B5",
"*  c #D3CD95",
"=  c #18353E",
"-  c #C6C08C",
";  c #D7D799",
":  c #19363F",
">  c #1B3841",
",  c #3E7274",
"<  c #508775",
"1  c #427979",
"2  c #24444A",
"3  c #498293",
"4  c #54897A",
"5  c #619773",
"6  c #6A9F6C",
"7  c #69A064",
"8  c #649B6F",
"9  c #6DA17E",
"0  c #DEEDAB",
"q  c #DEE6A6",
"w  c #608C82",
"e  c #D3E6DF",
"r  c #A1BCB3",
"t  c #7D9F7C",
"y  c #74AD57",
"u  c #8EC969",
"i  c #8FB893",
"p  c #44776C",
"a  c #DFE6A6",
"s  c #F2F8BC",
"d  c #2D5662",
"f  c #558E90",
"g  c #86C24E",
"h  c #2D461A",
"j  c #97D16B",
"k  c #78B253",
"l  c #3B6E65",
"z  c #315A57",
"x  c #D9E2A2",
"c  c #122B3A",
"v  c #69997E",
"b  c #639D87",
"n  c #80BD48",
"m  c #405F26",
"M  c #1E2F12",
"N  c #3A5725",
"B  c #83BD59",
"V  c #659F55",
"C  c #4A7863",
"Z  c #16313C",
"A  c #4F8983",
"S  c #689A84",
"D  c #5F9943",
"F  c #8BCB57",
"G  c #375024",
"H  c #1B2B10",
"J  c #2F481E",
"K  c #88C35A",
"L  c #73AD4D",
"P  c #598969",
"I  c #447769",
"U  c #2E616D",
"Y  c #5B9167",
"T  c #659E50",
"R  c #71AC49",
"E  c #344C20",
"W  c #1C2D10",
"Q  c #44612C",
"!  c #7EBA51",
"~  c #5D9644",
"^  c #82BE74",
"/  c #3A6F69",
"(  c #F4F9BD",
")  c #1A3740",
"_  c #599155",
"`  c #67A053",
"'  c #83BF53",
"]  c #324C1E",
"[  c #85C656",
"{  c #6AA444",
"}  c #578E6D",
"|  c #346E7C",
" . c #4D864C",
".. c #579143",
"X. c #4A7733",
"o. c #589244",
"O. c #265761",
"+. c #CFC993",
"@. c #255661",
"#. c #447866",
"$. c #528165",
"%. c #60907D",
"&. c #669A83",
"*. c #598D6C",
"=. c #49747F",
"-. c #2D5D5E",
";. c #66A367",
":. c #33646C",
">. c #193741",
",. c #D4D094",
"<. c #FAFAD0",
/* pixels */
"    . . X X o o o o O O + + o o o o     . . @ @ @ @ # # o o o o ",
"    . . X X o o o o O O + + o o o o     . . @ @ @ @ # # o o o o ",
"$ $ X X o o o o % % & & o o % % o o * * * * X X . . o o O O O O ",
"$ $ X X o o o o % % & & o o % % o o * * * * X X . . o o O O O O ",
"X X o o     O O O O @ @ o o = = = = = = % % @ @ . . X X - - ; ; ",
"X X o o     O O O O @ @ o o = = = = = = % % @ @ . . X X - - ; ; ",
"X X X X o o     + + : : > > , , < < 1 1 2 2 = = o o X X X X @ @ ",
"X X X X o o     + + : : > > , , < < 1 1 2 2 = = o o X X X X @ @ ",
"- - o o @ @ @ @ : : 3 3 4 4 5 5 6 6 7 7 8 8 9 9 = = O O X X 0 0 ",
"- - o o @ @ @ @ : : 3 3 4 4 5 5 6 6 7 7 8 8 9 9 = = O O X X 0 0 ",
"o o     q q : : 3 3 w w e e r r t t y y u u i i p p = = % % & & ",
"o o     q q : : 3 3 w w e e r r t t y y u u i i p p = = % % & & ",
"a a % % s s d d f f e e r r g g h h j j k k e e l l z z s s @ @ ",
"a a % % s s d d f f e e r r g g h h j j k k e e l l z z s s @ @ ",
"x x a a c c v v b b r r n n m m M M N N B B V V i i C C Z Z & & ",
"x x a a c c v v b b r r n n m m M M N N B B V V i i C C Z Z & & ",
"X X o o c c A A S S D D F F G G H H J J K K L L P P I I Z Z X X ",
"X X o o c c A A S S D D F F G G H H J J K K L L P P I I Z Z X X ",
"X X O O c c U U Y Y T T R R E E W W Q Q ! ! ~ ~ ^ ^ / / Z Z o o ",
"X X O O c c U U Y Y T T R R E E W W Q Q ! ! ~ ~ ^ ^ / / Z Z o o ",
"@ @ ( ( $ $ ) ) i i _ _ ` ` ' ' ] ] [ [ { { i i } } : : o o O O ",
"@ @ ( ( $ $ ) ) i i _ _ ` ` ' ' ] ] [ [ { { i i } } : : o o O O ",
"@ @ X X @ @ c c | | e e  . .....X.X.o.o.i i e e O.O.Z Z +.+.O O ",
"@ @ X X @ @ c c | | e e  . .....X.X.o.o.i i e e O.O.Z Z +.+.O O ",
"X X o o - - - - c c @.@.#.#.$.$.%.%.&.&.*.*.=.=.Z Z ; ; ; ; @ @ ",
"X X o o - - - - c c @.@.#.#.$.$.%.%.&.&.*.*.=.=.Z Z ; ; ; ; @ @ ",
"o o o o * * % % & & c c : : -.-.;.;.:.:.>.>.Z Z     $ $ O O @ @ ",
"o o o o * * % % & & c c : : -.-.;.;.:.:.>.>.Z Z     $ $ O O @ @ ",
"& & ,.,.o o O O q q O O     c c c c c c O O X X # # @ @ @ @ . . ",
"& & ,.,.o o O O q q O O     c c c c c c O O X X # # @ @ @ @ . . ",
"% % @ @ a a % % O O @ @ & & o o O O O O <.<.& & o o o o X X O O ",
"% % @ @ a a % % O O @ @ & & o o O O O O <.<.& & o o o o X X O O "
};
