/* XPM */
static char *c54b6e8242cb4477b6dc0c9ea37f9b8dlOhafpZoTiIykEUL[] = {
/* columns rows colors chars-per-pixel */
"32 32 119 2 ",
"   c #271A07",
".  c #251909",
"X  c #2B1D0D",
"o  c #3C1F0D",
"O  c #2C200F",
"+  c #34220E",
"@  c #3D210E",
"#  c #2D2010",
"$  c #322212",
"%  c #3B2612",
"&  c #3C2913",
"*  c #481F0A",
"=  c #45220B",
"-  c #4B240F",
";  c #50260F",
":  c #452110",
">  c #492210",
",  c #452A16",
"<  c #482914",
"1  c #462E1A",
"2  c #482D19",
"3  c #522410",
"4  c #6C432C",
"5  c #70452D",
"6  c #6E4332",
"7  c #734131",
"8  c #7A4F35",
"9  c #7F4A3A",
"0  c #7D533B",
"q  c #5E4276",
"w  c #5A447C",
"e  c #60407B",
"r  c #60487D",
"t  c #844B3B",
"y  c #894C3D",
"u  c #815435",
"i  c #81533A",
"p  c #8C5E3D",
"a  c #835643",
"s  c #885745",
"d  c #8C5D42",
"f  c #925E42",
"g  c #985F41",
"h  c #9D6647",
"j  c #9F6846",
"k  c #9C654A",
"l  c #976A4E",
"z  c #9F6A4D",
"x  c #8D6A51",
"c  c #956A50",
"v  c #9C6A50",
"b  c #9D7051",
"n  c #9E735B",
"m  c #A56A48",
"M  c #A67056",
"N  c #A2735A",
"B  c #AD765B",
"V  c #B0795D",
"C  c #9D7C66",
"Z  c #A57C65",
"A  c #AB7D65",
"S  c #A47B6D",
"D  c #AB7F6C",
"F  c #B17C62",
"G  c #B27C6B",
"H  c #AB7870",
"J  c #AD7F78",
"K  c #A58268",
"L  c #AD826B",
"P  c #B78367",
"I  c #B1836B",
"U  c #B7896D",
"Y  c #AF8775",
"T  c #AF807D",
"R  c #B48575",
"E  c #B98672",
"W  c #B48A73",
"Q  c #BB8C73",
"!  c #B38578",
"~  c #BD927D",
"^  c #C4957F",
"/  c #5D4983",
"(  c #614186",
")  c #604982",
"_  c #C3BD89",
"`  c #C6C08C",
"'  c #CFC993",
"]  c #D3CD95",
"[  c #D4D294",
"{  c #D6D699",
"}  c #D9DD9E",
"|  c #D9E2A2",
" . c #DEE6A6",
".. c #DFE6A6",
"X. c #DEE6A6",
"o. c #DEE9A9",
"O. c #DEEDAB",
"+. c #E0EDAD",
"@. c #E0EDAD",
"#. c #E8F7B5",
"$. c #E8F7B5",
"%. c #EBF8B6",
"&. c #ECF8B4",
"*. c #EBF8B6",
"=. c #F2F8BC",
"-. c #F4F9BD",
";. c #F3F9BD",
":. c #F9F9C5",
">. c #F9F9C5",
",. c #FAFAD0",
"<. c #FAFAD0",
"1. c #F0EFEB",
"2. c #F5EDEB",
"3. c #F1EBED",
"4. c #F7EFEE",
"5. c #F6EFEF",
"6. c #FCEFEA",
"7. c #F9F1E9",
"8. c #F6EDF0",
/* pixels */
"} } &.&.*.*.` _ _ _ } } o.o._ _ _ _ } } *.*.>.>.>.>.@.@._ _ _ _ ",
"} } &.&.*.*._ _ _ _ } } o.o._ _ _ _ } } $.%.>.>.>.>.@.@._ _ _ _ ",
"[ { &.*._ _ _ _ { { $.$._ _ { { _ _ ' ] ] ] %.%.*.&._ _ } } } } ",
"[ [ *.*._ _ _ _ { [ $.$._ _ { { _ _ ] ] ] ] %.$.*.&._ _ } } } } ",
"&.&._ _ } } } } } } >.>._ _ ' ' } } } } { { >.>.&.&.*.*._ _ } } ",
"$.$._ ` } } } } } } >.>._ _ ' ' } } } } { { >.>.&.*.*.*._ _ { { ",
"*.*.$.&._ _ } } o.o.>.>.} } } } ] ] } } >.>.>.>._ _ *.*.=.&.>.>.",
"*.*.&.$._ ` | } o.o.>.>.} } } } ] ] } } >.>.>.>._ _ *.*.*.&.>.>.",
"` ` ` _ >.>.>.>.O O O X # # X X . . X   X . X X } } } } &.%.o.o.",
"` ` _ _ >.>.>.>.O O O X X # X X . . X   O X X X } } } } &.%.O.o.",
"_ _ } }  . ._ _ X X X O X X $ $ + , & & X O O X ] ] } } { { %.$.",
"_ _ } }  . ._ _ X X O + + + & % 2 , 2 2 + O X X ] ] } } { { $.$.",
" . .{ { =.=._ _ X + K L U W ~ ~ U U U U M n % # [ [ ' ' >.=.>.>.",
" . .{ { =.=._ ` + & L U Q Q ^ ^ Q Q Q Q B N , % [ [ ' ' %.=.>.>.",
"| |  . . . .>.>.C Z I U L K L I n N Q Q z z c x  . .>.>.=.>.$.$.",
"| |  . . . .>.>.A A W W S S L D n n ! R n n z l  . .>.>.=.=.$.$.",
"*.*._ _ _ _ _ _ L W 4.1./ w G G Q Y ( / 3.2.L Z _ _ ] [ &.&.*.*.",
"*.*._ _ _ _ _ _ I W 6.4.( e H F E Y e w 4.7.L A _ _ [ [ &.&.*.*.",
"*.*.} } [ { } } k h G I ! J 6 6 6 7 W ! M l u u <.<.&.*._ _ _ _ ",
"*.*.} } { { } } k k V F G D 5 4 6 7 P P m m u u <.<.*.*._ _ _ _ ",
">.>.-.-.[ [ } } f f g f - - t y y t 3 ; p p i 0 %.%._ _ _ _ } } ",
">.>.-.-.[ [ } } d f f d = = 9 t y 9 > : p d i 0 %.$._ _ _ _ } } ",
">.>.*.*.>.>.>.>.5 5 5 4 = = * * - - = = 0 i 0 8 _ _ { { ' ' } } ",
">.>.*.*.>.>.>.>.4 6 6 4 = @ @ @ , , , , a s 0 0 _ _ { [ ' ' } } ",
"*.*._ _ ` ` ` ` >.>.} } ` _ ] ] _ _ _ ` %.%.*.*._ _ [ } [ { >.>.",
"%.*._ _ ` ` ` ` >.>.} } _ _ ] ] _ _ _ ` %.%.%.*._ _ } } } [ >.>.",
"_ _ _ _ ] ] { { $.$.*.*.<.<.$.$. . .{ { } } *.*.} } [ [ } } >.>.",
"_ _ _ _ ] ] { { $.$.*.*.<.<.$.$. . .{ { } } *.*.} } [ [ } } >.>.",
"$.$.] [ _ _ } }  . .} } } } -.-.=.=.-.-.} } *.*.@.@.>.>.>.>.&.&.",
"$.%.[ ] _ _ } }  . .} } } } -.-.=.=.-.-.} } *.*.@.@.>.>.>.>.&.&.",
"{ { >.>. . .[ { } } >.>.&.$._ _ } } } } <.<.$.$._ _ _ _ *.*.} } ",
"{ { >.>. . .{ { } } >.>.$.$._ _ } } } } <.<.$.$._ _ _ _ *.$.} } "
};
