/* XPM */
static char *_ce5c7b58fd643baf1de1326fc0868d12x8cql87wPj8cNld[] = {
/* columns rows colors chars-per-pixel */
"32 32 64 1 ",
"  c #C3BD89",
". c #C4BF8A",
"X c #C5C08B",
"o c #C6C28D",
"O c #C7C38D",
"+ c #C8C48E",
"@ c #C8C48F",
"# c #CAC790",
"$ c #CAC890",
"% c #CBC991",
"& c #CBC992",
"* c #CCCB93",
"= c #CFCE95",
"- c #CFCF95",
"; c #CFD095",
": c #D1D097",
"> c #D2D398",
", c #D3D39A",
"< c #D3D498",
"1 c #D3D59A",
"2 c #D3D49B",
"3 c #D4D69B",
"4 c #D4D49C",
"5 c #D5D79C",
"6 c #D6D79E",
"7 c #D7DA9D",
"8 c #D6D89E",
"9 c #D8DC9F",
"0 c #D8DCA0",
"q c #D9DFA1",
"w c #DAE0A3",
"e c #DDE3A3",
"r c #E0E5A5",
"t c #E1E2AD",
"y c #E1E8A8",
"u c #E4EBAB",
"i c #E3ECAB",
"p c #E5ECAB",
"a c #E6EFAC",
"s c #E6F0AD",
"d c #E8EBB6",
"f c #E7F3B0",
"g c #EAF7B4",
"h c #EBF8B4",
"j c #ECF8B4",
"k c #EEF8B6",
"l c #EEF3BC",
"z c #EFF5BD",
"x c #EFF8B8",
"c c #EFF8BB",
"v c #F1F6BB",
"b c #F1F8BD",
"n c #F2F8BD",
"m c #F0F5C0",
"M c #F3F5C6",
"N c #F4F6C7",
"B c #F4F7C7",
"V c #F2F8C0",
"C c #F3F9C3",
"Z c #F5F9C5",
"A c #F7F8C5",
"S c #F5F8C8",
"D c #F6F9C9",
"F c #F8F8CB",
/* pixels */
"**DDDD66>,NAAAFFFFll40zmFDDD##..",
"**DDDD6604NBAAFFFFlv03mmFDND##..",
"BBnnyyyy,>wwyyaayyrr31hhhkyyss$$",
"BBnnyyyy:0wwyyaayyrr34hhhhyyss*$",
"DDyyssssssetyyisaassaaxxhhhhyy00",
"DDyyssssssttyeaessssaaxxhhhhyy99",
"DDhhyyssffZZ>;99aussNAxxyyhhhh90",
"DDhhyyssffZA;;99uussAAxxyyhhhh00",
"BAryCnnnxxAZhhssxxZAyyyysssshh$*",
"BAyynCnnxxZZhhsscxZAyyyysssshh*$",
"MBsssfyyyyeiZCxkhhyyyyssppssas**",
"MBssssyyyyyyAmxxhhyyyyssppssip**",
"**pskkyyqqssssgghhhhss*:77uu$*$$",
"**ppkkyy70ssssgghhhhss:*76uu**@#",
"OO6511XXO.@@O.#OOOOOO@1441@@@@. ",
"OO3511XX..@@..@OoOOO@O7111@@@O  ",
"DZNBMM11,>FDMM*$. @$BNFFddllzzND",
"DFMNMZ4147DDMN*#..*$BNNBddlzzzDD",
"ggss11eeauzcggffooBNxvssxciiyyei",
"hhsa11eeuuxlggffoOMMzcssxziiyyyy",
"xxkksisszcZChhhgO@NNssccCCyuyyss",
"xxkkisssxcCChhgg@@NFssccCZyeyyss",
"xxCCxxZZCCyyyyaaOOBDhhZCeyaasiss",
"xkCCxkZACCyyyefaOODDhhZCyyiauiss",
"ghyyyeiuZZsseyia.OMMhhCCyysaaavk",
"hhyyyuieZZssyyisO@MBhhncyyssaaxx",
"yyyy;*q0gghhvchh61NBsshhss$$::xx",
"yyyy;*00gghhcchh16DDsshhss$$*>xx",
"kgauey009qasss7174**sshh9wkkAZCC",
"fkuuiy00q9ssss4166;:sshhwwxhDCCC",
"#O4>:>O.>>X.@@OO.X76@@@@XXX @@@@",
"OO>>:*.O>>Xo@@O..X34@@@@X XX@@OO"
};
